<svg xmlns="http://www.w3.org/2000/svg" viewBox="0 0 320 320" fill="none">
  <rect width="320" height="320" fill="#2f4f57"/>
  <g transform="translate(120 88)" stroke="#ffffff" stroke-linecap="round" stroke-linejoin="round">
    <path d="M8 46 L14 34 M14 34 L20 46 M11 40 L17 28 M17 28 L23 40 M13 44 L13 48" stroke-width="1.4"/>
    <path d="M54 46 L60 33 M60 33 L66 46 M57 39 L63 26 M63 26 L69 39 M60 44 L60 48" stroke-width="1.4"/>
    <path d="M26 48 V37.5 H46 V48" stroke-width="1.5"/>
    <path d="M24 37.5 L36 24 L48 37.5" stroke-width="1.55"/>
    <path d="M31 48 V42 H41 V48" stroke-width="1.35"/>
    <path d="M33.5 42 H38.5" stroke-width="1.2"/>
    <path d="M6 48 H70" stroke-width="1.1" opacity="0.55"/>
  </g>
  <text x="160" y="198" fill="#ffffff" text-anchor="middle" font-family="Montserrat, Arial, sans-serif" font-size="15" font-weight="600" letter-spacing="3">CABA—A AL BOSQUE</text>
  <text x="160" y="218" fill="#ffffff" text-anchor="middle" font-family="Montserrat, Arial, sans-serif" font-size="8" font-weight="400" letter-spacing="2.2" opacity="0.88">DOS VALLES ∑ BARILOCHE</text>
</svg>
